<mxfile host="app.diagrams.net" agent="Mozilla/5.0 (Windows NT 10.0; Win64; x64) AppleWebKit/537.36 (KHTML, like Gecko) Chrome/131.0.0.0 Safari/537.36" version="25.0.3">
  <diagram name="Страница 1" id="tsVzY9tAOrzdKIn3t2cB">
    <mxGraphModel dx="1050" dy="522" grid="1" gridSize="10" guides="1" tooltips="1" connect="1" arrows="1" fold="1" page="1" pageScale="1" pageWidth="827" pageHeight="1169" math="0" shadow="0">
      <root>
        <mxCell id="0" />
        <mxCell id="1" parent="0" />
        <mxCell id="anB-D9dIyMDaOdh5xR8B-26" value="" style="ellipse;html=1;shape=startState;fillColor=#000000;strokeColor=#ff0000;" vertex="1" parent="1">
          <mxGeometry x="369" y="490" width="30" height="30" as="geometry" />
        </mxCell>
        <mxCell id="anB-D9dIyMDaOdh5xR8B-27" value="" style="edgeStyle=orthogonalEdgeStyle;html=1;verticalAlign=bottom;endArrow=open;endSize=8;strokeColor=#ff0000;rounded=0;" edge="1" parent="1" source="anB-D9dIyMDaOdh5xR8B-26">
          <mxGeometry relative="1" as="geometry">
            <mxPoint x="384" y="580" as="targetPoint" />
          </mxGeometry>
        </mxCell>
        <mxCell id="anB-D9dIyMDaOdh5xR8B-28" value="Создание заявки" style="rounded=0;whiteSpace=wrap;html=1;" vertex="1" parent="1">
          <mxGeometry x="331" y="580" width="106" height="40" as="geometry" />
        </mxCell>
        <mxCell id="anB-D9dIyMDaOdh5xR8B-29" value="Администратор&amp;nbsp;&lt;br&gt;принимает заявку" style="rounded=0;whiteSpace=wrap;html=1;" vertex="1" parent="1">
          <mxGeometry x="331" y="690" width="106" height="40" as="geometry" />
        </mxCell>
        <mxCell id="anB-D9dIyMDaOdh5xR8B-30" value="Администратор&amp;nbsp;&lt;br&gt;&amp;nbsp;ищет подходящий номер" style="rounded=0;whiteSpace=wrap;html=1;" vertex="1" parent="1">
          <mxGeometry x="331" y="800" width="106" height="40" as="geometry" />
        </mxCell>
        <mxCell id="anB-D9dIyMDaOdh5xR8B-31" value="Нашелся подходящий номер?" style="rhombus;whiteSpace=wrap;html=1;fillColor=#ffffc0;strokeColor=#ff0000;" vertex="1" parent="1">
          <mxGeometry x="346" y="910" width="80" height="80" as="geometry" />
        </mxCell>
        <mxCell id="anB-D9dIyMDaOdh5xR8B-32" value="no" style="edgeStyle=orthogonalEdgeStyle;html=1;align=left;verticalAlign=bottom;endArrow=open;endSize=8;strokeColor=#ff0000;rounded=0;exitX=1;exitY=0.5;exitDx=0;exitDy=0;" edge="1" parent="1" source="anB-D9dIyMDaOdh5xR8B-31">
          <mxGeometry x="-1" y="12" relative="1" as="geometry">
            <mxPoint x="459" y="1040" as="targetPoint" />
            <Array as="points">
              <mxPoint x="459" y="950" />
              <mxPoint x="459" y="1040" />
            </Array>
            <mxPoint x="-7" y="2" as="offset" />
          </mxGeometry>
        </mxCell>
        <mxCell id="anB-D9dIyMDaOdh5xR8B-33" value="yes" style="edgeStyle=orthogonalEdgeStyle;html=1;align=left;verticalAlign=top;endArrow=open;endSize=8;strokeColor=#ff0000;rounded=0;" edge="1" parent="1" source="anB-D9dIyMDaOdh5xR8B-31">
          <mxGeometry x="-0.7323" y="-30" relative="1" as="geometry">
            <mxPoint x="309" y="1040" as="targetPoint" />
            <Array as="points">
              <mxPoint x="309" y="950" />
            </Array>
            <mxPoint as="offset" />
          </mxGeometry>
        </mxCell>
        <mxCell id="anB-D9dIyMDaOdh5xR8B-34" value="" style="edgeStyle=orthogonalEdgeStyle;rounded=0;orthogonalLoop=1;jettySize=auto;html=1;" edge="1" parent="1">
          <mxGeometry relative="1" as="geometry">
            <mxPoint x="384" y="620" as="sourcePoint" />
            <mxPoint x="384" y="690" as="targetPoint" />
          </mxGeometry>
        </mxCell>
        <mxCell id="anB-D9dIyMDaOdh5xR8B-35" value="" style="edgeStyle=orthogonalEdgeStyle;rounded=0;orthogonalLoop=1;jettySize=auto;html=1;" edge="1" parent="1">
          <mxGeometry relative="1" as="geometry">
            <mxPoint x="384" y="730" as="sourcePoint" />
            <mxPoint x="384" y="800" as="targetPoint" />
          </mxGeometry>
        </mxCell>
        <mxCell id="anB-D9dIyMDaOdh5xR8B-36" value="" style="edgeStyle=orthogonalEdgeStyle;rounded=0;orthogonalLoop=1;jettySize=auto;html=1;entryX=0.5;entryY=0;entryDx=0;entryDy=0;" edge="1" parent="1" target="anB-D9dIyMDaOdh5xR8B-31">
          <mxGeometry relative="1" as="geometry">
            <mxPoint x="384" y="840" as="sourcePoint" />
            <mxPoint x="384" y="910" as="targetPoint" />
            <Array as="points">
              <mxPoint x="386" y="840" />
            </Array>
          </mxGeometry>
        </mxCell>
        <mxCell id="anB-D9dIyMDaOdh5xR8B-37" value="Вывести сообщение, что номер не найден" style="rounded=0;whiteSpace=wrap;html=1;" vertex="1" parent="1">
          <mxGeometry x="410" y="1040" width="106" height="40" as="geometry" />
        </mxCell>
        <mxCell id="anB-D9dIyMDaOdh5xR8B-38" value="Вывести информацию о номере" style="rounded=0;whiteSpace=wrap;html=1;" vertex="1" parent="1">
          <mxGeometry x="260" y="1040" width="106" height="40" as="geometry" />
        </mxCell>
        <mxCell id="anB-D9dIyMDaOdh5xR8B-39" value="Система выставляет счёт" style="rounded=0;whiteSpace=wrap;html=1;" vertex="1" parent="1">
          <mxGeometry x="260" y="1150" width="106" height="40" as="geometry" />
        </mxCell>
        <mxCell id="anB-D9dIyMDaOdh5xR8B-40" value="" style="edgeStyle=orthogonalEdgeStyle;rounded=0;orthogonalLoop=1;jettySize=auto;html=1;" edge="1" parent="1">
          <mxGeometry relative="1" as="geometry">
            <mxPoint x="312.71000000000004" y="1080" as="sourcePoint" />
            <mxPoint x="312.71000000000004" y="1150" as="targetPoint" />
          </mxGeometry>
        </mxCell>
        <mxCell id="anB-D9dIyMDaOdh5xR8B-41" value="" style="ellipse;html=1;shape=endState;fillColor=#000000;strokeColor=#ff0000;" vertex="1" parent="1">
          <mxGeometry x="371" y="1210" width="30" height="30" as="geometry" />
        </mxCell>
        <mxCell id="anB-D9dIyMDaOdh5xR8B-42" value="" style="html=1;verticalAlign=bottom;labelBackgroundColor=none;endArrow=block;endFill=1;endSize=6;align=left;rounded=0;exitX=0.45;exitY=1.072;exitDx=0;exitDy=0;exitPerimeter=0;" edge="1" parent="1" source="anB-D9dIyMDaOdh5xR8B-37" target="anB-D9dIyMDaOdh5xR8B-41">
          <mxGeometry x="-1" relative="1" as="geometry">
            <mxPoint x="430" y="1180" as="sourcePoint" />
            <mxPoint x="590" y="1180" as="targetPoint" />
          </mxGeometry>
        </mxCell>
        <mxCell id="anB-D9dIyMDaOdh5xR8B-43" value="" style="html=1;verticalAlign=bottom;labelBackgroundColor=none;endArrow=block;endFill=1;endSize=6;align=left;rounded=0;exitX=0.5;exitY=1;exitDx=0;exitDy=0;entryX=0;entryY=0;entryDx=0;entryDy=0;" edge="1" parent="1" source="anB-D9dIyMDaOdh5xR8B-39" target="anB-D9dIyMDaOdh5xR8B-41">
          <mxGeometry x="-1" relative="1" as="geometry">
            <mxPoint x="467.70000000000005" y="1092.88" as="sourcePoint" />
            <mxPoint x="401.2301509571514" y="1270.941354227177" as="targetPoint" />
          </mxGeometry>
        </mxCell>
      </root>
    </mxGraphModel>
  </diagram>
</mxfile>
